<mxfile host="app.diagrams.net" modified="2021-12-04T10:04:21.987Z" agent="5.0 (Macintosh)" etag="ga513vdSmu92sYWMjJ8W" version="15.7.4" type="github">
  <diagram id="S6PIHfmrQOLt2L9f514X" name="Page-1">
    <mxGraphModel dx="2066" dy="1070" grid="1" gridSize="10" guides="1" tooltips="1" connect="1" arrows="1" fold="1" page="1" pageScale="1" pageWidth="827" pageHeight="1169" math="0" shadow="0">
      <root>
        <mxCell id="0" />
        <mxCell id="1" parent="0" />
        <mxCell id="wqtDf2Wb5N4c8WU43aYD-1" value="&lt;div&gt;&lt;font color=&quot;#FF0000&quot;&gt;Item&lt;/font&gt;&lt;/div&gt;&lt;div&gt;&lt;font color=&quot;#FF0000&quot;&gt;&lt;br&gt;&lt;/font&gt;&lt;/div&gt;&lt;div&gt;&lt;font color=&quot;#FF0000&quot;&gt;buy:bool&lt;br&gt;&lt;/font&gt;&lt;/div&gt;" style="whiteSpace=wrap;html=1;align=center;fillColor=#f8cecc;strokeColor=#b85450;" parent="1" vertex="1">
          <mxGeometry x="40" y="90" width="140" height="70" as="geometry" />
        </mxCell>
        <mxCell id="wqtDf2Wb5N4c8WU43aYD-2" value="SKU" style="whiteSpace=wrap;html=1;align=center;fillColor=#ffe6cc;strokeColor=#d79b00;" parent="1" vertex="1">
          <mxGeometry x="70" y="290" width="100" height="40" as="geometry" />
        </mxCell>
        <mxCell id="wqtDf2Wb5N4c8WU43aYD-6" value="" style="edgeStyle=entityRelationEdgeStyle;fontSize=12;html=1;endArrow=ERone;endFill=1;rounded=0;exitX=0.5;exitY=0;exitDx=0;exitDy=0;entryX=0.5;entryY=1;entryDx=0;entryDy=0;" parent="1" source="wqtDf2Wb5N4c8WU43aYD-2" target="wqtDf2Wb5N4c8WU43aYD-1" edge="1">
          <mxGeometry width="100" height="100" relative="1" as="geometry">
            <mxPoint x="80" y="280" as="sourcePoint" />
            <mxPoint x="130" y="180" as="targetPoint" />
          </mxGeometry>
        </mxCell>
        <mxCell id="wqtDf2Wb5N4c8WU43aYD-7" value="Linked together by user, pre defined, data" style="edgeLabel;html=1;align=center;verticalAlign=middle;resizable=0;points=[];" parent="wqtDf2Wb5N4c8WU43aYD-6" vertex="1" connectable="0">
          <mxGeometry x="0.018" relative="1" as="geometry">
            <mxPoint x="17" y="5" as="offset" />
          </mxGeometry>
        </mxCell>
        <mxCell id="wqtDf2Wb5N4c8WU43aYD-8" value="&lt;font color=&quot;#FF0000&quot;&gt;List&lt;/font&gt;" style="whiteSpace=wrap;html=1;align=center;fillColor=#f8cecc;strokeColor=#b85450;" parent="1" vertex="1">
          <mxGeometry x="350" y="40" width="100" height="40" as="geometry" />
        </mxCell>
        <mxCell id="wqtDf2Wb5N4c8WU43aYD-9" value="&lt;div&gt;Is on list&lt;/div&gt;" style="endArrow=none;html=1;rounded=0;exitX=1;exitY=0.5;exitDx=0;exitDy=0;entryX=0;entryY=0.5;entryDx=0;entryDy=0;" parent="1" source="wqtDf2Wb5N4c8WU43aYD-1" target="wqtDf2Wb5N4c8WU43aYD-8" edge="1">
          <mxGeometry relative="1" as="geometry">
            <mxPoint x="320" y="540" as="sourcePoint" />
            <mxPoint x="480" y="540" as="targetPoint" />
          </mxGeometry>
        </mxCell>
        <mxCell id="wqtDf2Wb5N4c8WU43aYD-11" value="" style="endArrow=none;html=1;rounded=0;exitX=0;exitY=0.5;exitDx=0;exitDy=0;" parent="1" source="wqtDf2Wb5N4c8WU43aYD-12" target="wqtDf2Wb5N4c8WU43aYD-8" edge="1">
          <mxGeometry relative="1" as="geometry">
            <mxPoint x="490" y="180" as="sourcePoint" />
            <mxPoint x="440" y="120" as="targetPoint" />
          </mxGeometry>
        </mxCell>
        <mxCell id="wqtDf2Wb5N4c8WU43aYD-12" value="&lt;font color=&quot;#FF0000&quot;&gt;Trip&lt;/font&gt;" style="whiteSpace=wrap;html=1;align=center;fillColor=#dae8fc;strokeColor=#6c8ebf;" parent="1" vertex="1">
          <mxGeometry x="540" y="170" width="100" height="40" as="geometry" />
        </mxCell>
        <mxCell id="wqtDf2Wb5N4c8WU43aYD-13" value="&lt;font color=&quot;#FF0000&quot;&gt;Checkout&lt;/font&gt;" style="whiteSpace=wrap;html=1;align=center;fillColor=#dae8fc;strokeColor=#6c8ebf;" parent="1" vertex="1">
          <mxGeometry x="364" y="190" width="100" height="40" as="geometry" />
        </mxCell>
        <mxCell id="wqtDf2Wb5N4c8WU43aYD-14" value="" style="endArrow=none;html=1;rounded=0;exitX=1;exitY=0.5;exitDx=0;exitDy=0;entryX=0;entryY=0.75;entryDx=0;entryDy=0;" parent="1" source="wqtDf2Wb5N4c8WU43aYD-13" target="wqtDf2Wb5N4c8WU43aYD-12" edge="1">
          <mxGeometry relative="1" as="geometry">
            <mxPoint x="320" y="440" as="sourcePoint" />
            <mxPoint x="480" y="440" as="targetPoint" />
          </mxGeometry>
        </mxCell>
        <mxCell id="wqtDf2Wb5N4c8WU43aYD-15" value="" style="endArrow=none;html=1;rounded=0;entryX=0;entryY=0.5;entryDx=0;entryDy=0;" parent="1" source="wqtDf2Wb5N4c8WU43aYD-1" target="wqtDf2Wb5N4c8WU43aYD-13" edge="1">
          <mxGeometry relative="1" as="geometry">
            <mxPoint x="200" y="169" as="sourcePoint" />
            <mxPoint x="360" y="169" as="targetPoint" />
          </mxGeometry>
        </mxCell>
        <mxCell id="wqtDf2Wb5N4c8WU43aYD-16" value="&lt;div&gt;&lt;font color=&quot;#FF0000&quot;&gt;Receipt&lt;/font&gt;&lt;/div&gt;" style="whiteSpace=wrap;html=1;align=center;fillColor=#d5e8d4;strokeColor=#82b366;" parent="1" vertex="1">
          <mxGeometry x="610" y="290" width="100" height="40" as="geometry" />
        </mxCell>
        <mxCell id="wqtDf2Wb5N4c8WU43aYD-17" value="" style="edgeStyle=entityRelationEdgeStyle;fontSize=12;html=1;endArrow=ERzeroToOne;startArrow=ERmandOne;rounded=0;entryX=1;entryY=1;entryDx=0;entryDy=0;exitX=0.5;exitY=0;exitDx=0;exitDy=0;" parent="1" source="wqtDf2Wb5N4c8WU43aYD-16" target="wqtDf2Wb5N4c8WU43aYD-12" edge="1">
          <mxGeometry width="100" height="100" relative="1" as="geometry">
            <mxPoint x="530" y="330" as="sourcePoint" />
            <mxPoint x="630" y="230" as="targetPoint" />
          </mxGeometry>
        </mxCell>
        <mxCell id="wqtDf2Wb5N4c8WU43aYD-18" value="&lt;font color=&quot;#FF0000&quot;&gt;LineItem&lt;/font&gt;" style="whiteSpace=wrap;html=1;align=center;fillColor=#d5e8d4;strokeColor=#82b366;" parent="1" vertex="1">
          <mxGeometry x="540" y="400" width="100" height="40" as="geometry" />
        </mxCell>
        <mxCell id="wqtDf2Wb5N4c8WU43aYD-19" value="" style="endArrow=none;html=1;rounded=0;exitX=1;exitY=0.5;exitDx=0;exitDy=0;entryX=0;entryY=0.5;entryDx=0;entryDy=0;" parent="1" source="wqtDf2Wb5N4c8WU43aYD-2" target="wqtDf2Wb5N4c8WU43aYD-18" edge="1">
          <mxGeometry relative="1" as="geometry">
            <mxPoint x="320" y="440" as="sourcePoint" />
            <mxPoint x="480" y="440" as="targetPoint" />
          </mxGeometry>
        </mxCell>
        <mxCell id="wqtDf2Wb5N4c8WU43aYD-23" value="Matches via &quot;description&quot;" style="edgeLabel;html=1;align=center;verticalAlign=middle;resizable=0;points=[];fontColor=#000000;" parent="wqtDf2Wb5N4c8WU43aYD-19" vertex="1" connectable="0">
          <mxGeometry x="-0.0307" y="2" relative="1" as="geometry">
            <mxPoint as="offset" />
          </mxGeometry>
        </mxCell>
        <mxCell id="wqtDf2Wb5N4c8WU43aYD-20" value="" style="endArrow=none;html=1;rounded=0;entryX=0.75;entryY=0;entryDx=0;entryDy=0;exitX=0.39;exitY=1.075;exitDx=0;exitDy=0;exitPerimeter=0;" parent="1" source="wqtDf2Wb5N4c8WU43aYD-16" target="wqtDf2Wb5N4c8WU43aYD-18" edge="1">
          <mxGeometry relative="1" as="geometry">
            <mxPoint x="510" y="370" as="sourcePoint" />
            <mxPoint x="670" y="370" as="targetPoint" />
          </mxGeometry>
        </mxCell>
        <mxCell id="wqtDf2Wb5N4c8WU43aYD-21" value="&lt;font color=&quot;#00CC00&quot;&gt;OCR -&amp;nbsp; expense documentation&lt;br&gt;&lt;/font&gt;" style="text;html=1;align=center;verticalAlign=middle;resizable=0;points=[];autosize=1;strokeColor=none;fillColor=none;" parent="1" vertex="1">
          <mxGeometry x="420" y="290" width="180" height="20" as="geometry" />
        </mxCell>
        <mxCell id="wqtDf2Wb5N4c8WU43aYD-22" value="&lt;font color=&quot;#FF0000&quot;&gt;List Creation&lt;/font&gt;" style="text;html=1;align=center;verticalAlign=middle;resizable=0;points=[];autosize=1;strokeColor=none;fillColor=none;fontColor=#00CC00;" parent="1" vertex="1">
          <mxGeometry y="20" width="80" height="20" as="geometry" />
        </mxCell>
        <mxCell id="wqtDf2Wb5N4c8WU43aYD-24" value="&lt;font color=&quot;#0000CC&quot;&gt;Shoppping in Store&lt;/font&gt;" style="text;html=1;align=center;verticalAlign=middle;resizable=0;points=[];autosize=1;strokeColor=none;fillColor=none;fontColor=#FF0000;" parent="1" vertex="1">
          <mxGeometry x="520" y="100" width="120" height="20" as="geometry" />
        </mxCell>
        <mxCell id="wqtDf2Wb5N4c8WU43aYD-25" value="&lt;font color=&quot;#FF9933&quot;&gt;Internal Management&lt;/font&gt;" style="text;html=1;align=center;verticalAlign=middle;resizable=0;points=[];autosize=1;strokeColor=none;fillColor=none;fontColor=#000000;" parent="1" vertex="1">
          <mxGeometry x="30" y="370" width="130" height="20" as="geometry" />
        </mxCell>
        <mxCell id="ANMCo5BHHVNYbSJUFQm8-1" value="&lt;font color=&quot;#FF3A24&quot;&gt;Not Public Object&lt;/font&gt;" style="text;html=1;align=center;verticalAlign=middle;resizable=0;points=[];autosize=1;strokeColor=none;fillColor=none;" vertex="1" parent="1">
          <mxGeometry x="555" y="40" width="110" height="20" as="geometry" />
        </mxCell>
      </root>
    </mxGraphModel>
  </diagram>
</mxfile>
